<svg width="1920" height="180" viewBox="0 0 1920 180" fill="none" xmlns="http://www.w3.org/2000/svg">
    <path d="M246.141 179.019v-65.967l46.139-14.714 46.138 14.714v65.967h-92.277zm211.538 0V68.174l31.514-25.258 31.309 25.258v110.845h-62.823z" fill="#332C5A" fill-opacity=".5"/>
    <path fill-rule="evenodd" clip-rule="evenodd" d="M220.188 17.657V179.02h-55.201V17.657h55.201z" fill="#332C5A" fill-opacity=".5"/>
    <path d="M402.478 179.019V17.657h20.39c19.157 0 34.811 18.637 34.811 41.443v119.919h-55.202.001z" fill="#332C5A" fill-opacity=".5"/>
    <path fill-rule="evenodd" clip-rule="evenodd" d="M374.464 134.632V180H263.649v-45.368h110.815z" fill="#332C5A"/>
    <path fill-rule="evenodd" clip-rule="evenodd" d="M363.341 92.944v45.367h-38.104V92.944h38.104zM89.6 0v178.776H0V0h89.6z" fill="#332C5A"/>
    <path d="M89.6 179.019v-76.022l89.393-40.954v116.976H89.6zm121.938 0V76.022l26.159-23.297 26.159 23.297v102.997h-52.32.002zm233.164 0v-55.912l19.98-12.507 19.979 12.507v55.912h-39.959zm54.377-144.195v-5.152l27.807-12.753 27.807 12.753v5.148h-55.614v.004z" fill="#332C5A"/>
    <path fill-rule="evenodd" clip-rule="evenodd" d="M416.071 31.88v147.385h-41.812V31.88h41.812z" fill="#332C5A"/>
    <path fill-rule="evenodd" clip-rule="evenodd" d="M408.975 0v101.881h-26.326V0h26.326zM772.41 60.857v118.664H554.39V60.857h218.02z" fill="#332C5A"/>
    <path fill-rule="evenodd" clip-rule="evenodd" d="M554.77 64.356v115.165h-55.477V64.357h55.477z" fill="#332C5A"/>
    <path fill-rule="evenodd" clip-rule="evenodd" d="M516.022 35.565v143.956H503.56V35.565h12.462zm34.479 0v143.956H538.04V35.565h12.461z" fill="#332C5A"/>
    <path d="M933.811 179.019v-65.967l46.138-14.714 46.141 14.714v65.967h-92.279zm211.539 0V68.174l31.51-25.258 31.31 25.258v110.845h-62.82z" fill="#332C5A" fill-opacity=".5"/>
    <path fill-rule="evenodd" clip-rule="evenodd" d="M907.858 17.657V179.02h-55.201V17.657h55.201z" fill="#332C5A" fill-opacity=".5"/>
    <path d="M1090.15 179.019V17.657h20.39c19.15 0 34.81 18.637 34.81 41.443v119.919h-55.2z" fill="#332C5A" fill-opacity=".5"/>
    <path fill-rule="evenodd" clip-rule="evenodd" d="M1062.13 134.632V180H951.319v-45.368h110.811z" fill="#332C5A"/>
    <path fill-rule="evenodd" clip-rule="evenodd" d="M1051.01 92.944v45.367h-38.1V92.944h38.1zM777.269 0v178.776H687.67V0h89.599z" fill="#332C5A"/>
    <path d="M777.269 179.019v-76.022l89.394-40.954v116.976h-89.394zm121.939 0V76.022l26.159-23.297 26.158 23.297v102.997h-52.319.002zm233.162 0v-55.912l19.98-12.507 19.98 12.507v55.912h-39.96zm54.38-144.195v-5.152l27.81-12.753 27.8 12.753v5.148h-55.61v.004z" fill="#332C5A"/>
    <path fill-rule="evenodd" clip-rule="evenodd" d="M1103.74 31.88v147.385h-41.81V31.88h41.81z" fill="#332C5A"/>
    <path fill-rule="evenodd" clip-rule="evenodd" d="M1096.64 0v101.881h-26.32V0h26.32zm363.44 60.857v118.664h-218.02V60.857h218.02z" fill="#332C5A"/>
    <path fill-rule="evenodd" clip-rule="evenodd" d="M1242.44 64.356v115.165h-55.48V64.357h55.48z" fill="#332C5A"/>
    <path fill-rule="evenodd" clip-rule="evenodd" d="M1203.69 35.565v143.956h-12.46V35.565h12.46zm34.48 0v143.956h-12.46V35.565h12.46z" fill="#332C5A"/>
    <path d="M1617.73 179.019v-65.967l46.14-14.714 46.14 14.714v65.967h-92.28zm211.54 0V68.174l31.51-25.258 31.31 25.258v110.845h-62.82z" fill="#332C5A" fill-opacity=".5"/>
    <path fill-rule="evenodd" clip-rule="evenodd" d="M1591.78 17.657V179.02h-55.2V17.657h55.2z" fill="#332C5A" fill-opacity=".5"/>
    <path d="M1774.07 179.019V17.657h20.39c19.15 0 34.81 18.637 34.81 41.443v119.919h-55.2z" fill="#332C5A" fill-opacity=".5"/>
    <path fill-rule="evenodd" clip-rule="evenodd" d="M1746.05 134.632V180h-110.81v-45.368h110.81z" fill="#332C5A"/>
    <path fill-rule="evenodd" clip-rule="evenodd" d="M1734.93 92.944v45.367h-38.1V92.944h38.1zM1461.19 0v178.776h-89.6V0h89.6z" fill="#332C5A"/>
    <path d="M1461.19 179.019v-76.022l89.39-40.954v116.976h-89.39zm121.94 0V76.022l26.16-23.297 26.16 23.297v102.997h-52.32zm233.16 0v-55.912l19.98-12.507 19.98 12.507v55.912h-39.96zm54.38-144.195v-5.152l27.81-12.753 27.8 12.753v5.148h-55.61v.004z" fill="#332C5A"/>
    <path fill-rule="evenodd" clip-rule="evenodd" d="M1787.66 31.88v147.385h-41.81V31.88h41.81z" fill="#332C5A"/>
    <path fill-rule="evenodd" clip-rule="evenodd" d="M1780.57 0v101.881h-26.33V0h26.33zM2144 60.857v118.664h-218.02V60.857H2144z" fill="#332C5A"/>
    <path fill-rule="evenodd" clip-rule="evenodd" d="M1926.36 64.356v115.165h-55.48V64.357h55.48z" fill="#332C5A"/>
    <path fill-rule="evenodd" clip-rule="evenodd" d="M1887.61 35.565v143.956h-12.46V35.565h12.46zm34.48 0v143.956h-12.46V35.565h12.46z" fill="#332C5A"/>
</svg>
